<?xml version="1.0" encoding="UTF-8" standalone="no"?>
<!-- Created with Inkscape (http://www.inkscape.org/) -->

<svg
   width="165.61827"
   height="122.59332"
   viewBox="0 0 43.819834 32.436147"
   version="1.1"
   id="svg5"
   inkscape:version="1.1 (c68e22c387, 2021-05-23)"
   sodipodi:docname="PAWS-logo-v1_7_1.svg"
   inkscape:export-filename="C:\Users\Jeff\Documents\Web Development\PAWS-LI\PAWS-new-website\PAWS-logo-v1_7_1.webp"
   inkscape:export-xdpi="96"
   inkscape:export-ydpi="96"
   xmlns:inkscape="http://www.inkscape.org/namespaces/inkscape"
   xmlns:sodipodi="http://sodipodi.sourceforge.net/DTD/sodipodi-0.dtd"
   xmlns="http://www.w3.org/2000/svg"
   xmlns:svg="http://www.w3.org/2000/svg">
  <sodipodi:namedview
     id="namedview7"
     pagecolor="#ffffff"
     bordercolor="#666666"
     borderopacity="1.0"
     inkscape:pageshadow="2"
     inkscape:pageopacity="0.0"
     inkscape:pagecheckerboard="0"
     inkscape:document-units="mm"
     showgrid="false"
     inkscape:zoom="2.6989778"
     inkscape:cx="111.89421"
     inkscape:cy="75.769426"
     inkscape:window-width="1083"
     inkscape:window-height="1033"
     inkscape:window-x="0"
     inkscape:window-y="0"
     inkscape:window-maximized="0"
     inkscape:current-layer="layer1"
     units="px"
     fit-margin-top="0"
     fit-margin-left="0"
     fit-margin-right="0"
     fit-margin-bottom="0"
     width="168px"
     showguides="true"
     inkscape:guide-bbox="true"
     inkscape:snap-object-midpoints="true"
     inkscape:object-nodes="true" />
  <defs
     id="defs2">
    <inkscape:path-effect
       effect="mirror_symmetry"
       start_point="119.08877,128.8536"
       end_point="119.08877,142.4687"
       center_point="119.08877,135.66115"
       id="path-effect2005"
       is_visible="true"
       lpeversion="1.1"
       mode="vertical"
       discard_orig_path="false"
       fuse_paths="false"
       oposite_fuse="false"
       split_items="false"
       split_open="false" />
    <inkscape:path-effect
       effect="mirror_symmetry"
       start_point="118.9106,129.53505"
       end_point="118.9106,142.47091"
       center_point="118.9106,136.00298"
       id="path-effect107"
       is_visible="true"
       lpeversion="1.1"
       mode="vertical"
       discard_orig_path="false"
       fuse_paths="false"
       oposite_fuse="false"
       split_items="false"
       split_open="false" />
    <inkscape:path-effect
       effect="fill_between_many"
       method="originald"
       linkedpaths="#path42,0,1|"
       id="path-effect109"
       join="true"
       close="true"
       autoreverse="true" />
  </defs>
  <g
     inkscape:label="Layer 1"
     inkscape:groupmode="layer"
     id="layer1"
     transform="translate(-87.941575,-110.07606)"
     style="display:inline">
    <path
       inkscape:original-d="M 0,0"
       inkscape:path-effect="#path-effect109"
       d="m 102.54478,142.29845 c 1.56162,0.65484 5.61818,-0.79691 7.27385,-0.70587 1.65567,0.091 4.03891,0.41364 5.64668,0.70587 1.60777,0.29223 2.79419,-0.83411 3.30766,-1.96392 0.51347,-1.12981 0.54855,-1.81378 -1.03365,-3.51439 -1.5822,-1.70061 -3.68579,-4.34375 -5.40961,-6.50928 -1.72381,-2.16553 -3.40406,-1.70613 -4.82345,-0.003 -1.41939,1.70345 -3.58325,4.62585 -5.37494,6.20185 -1.79169,1.576 -1.71485,1.66475 -1.55047,2.99757 0.16438,1.33282 1.18312,2.46341 1.96393,2.79083 0.78082,0.32742 0,3.4e-4 0,3.4e-4 z"
       id="path111"
       style="display:inline" />
    <path
       style="fill:#000000;fill-opacity:1;stroke:#000000;stroke-width:0.0793746px;stroke-linecap:butt;stroke-linejoin:miter;stroke-opacity:1"
       d="m 102.54478,142.29845 c 1.56162,0.65484 5.61818,-0.79691 7.27385,-0.70587 1.65567,0.091 4.03891,0.41364 5.64668,0.70587 1.60777,0.29223 2.79419,-0.83411 3.30766,-1.96392 0.51347,-1.12981 0.54855,-1.81378 -1.03365,-3.51439 -1.5822,-1.70061 -3.68579,-4.34375 -5.40961,-6.50928 -1.72381,-2.16553 -3.40406,-1.70613 -4.82345,-0.003 -1.41939,1.70345 -3.58325,4.62585 -5.37494,6.20185 -1.79169,1.576 -1.71485,1.66475 -1.55047,2.99757 0.16438,1.33282 1.18312,2.46341 1.96393,2.79083 0.78082,0.32742 0,3.4e-4 0,3.4e-4 z m 14.61342,0 c -1.56162,0.65484 -5.61818,-0.79691 -7.27385,-0.70587 -1.65567,0.091 -4.03891,0.41364 -5.64668,0.70587 -1.60777,0.29223 -2.79419,-0.83411 -3.30766,-1.96392 -0.51347,-1.12981 -0.54855,-1.81378 1.03365,-3.51439 1.5822,-1.70061 3.68579,-4.34375 5.40961,-6.50928 1.72381,-2.16553 3.40406,-1.70613 4.82345,-0.003 1.41939,1.70345 3.58325,4.62585 5.37494,6.20185 1.79169,1.576 1.71485,1.66475 1.55047,2.99757 -0.16438,1.33282 -1.18312,2.46341 -1.96393,2.79083 -0.78082,0.32742 0,3.4e-4 0,3.4e-4 z"
       id="path42"
       sodipodi:nodetypes="zzzzzzzzzzz"
       inkscape:path-effect="#path-effect2005"
       inkscape:original-d="m 102.54478,142.29845 c 1.56162,0.65484 5.61818,-0.79691 7.27385,-0.70587 1.65567,0.091 4.03891,0.41364 5.64668,0.70587 1.60777,0.29223 2.79419,-0.83411 3.30766,-1.96392 0.51347,-1.12981 0.54855,-1.81378 -1.03365,-3.51439 -1.5822,-1.70061 -3.68579,-4.34375 -5.40961,-6.50928 -1.72381,-2.16553 -3.40406,-1.70613 -4.82345,-0.003 -1.41939,1.70345 -3.58325,4.62585 -5.37494,6.20185 -1.79169,1.576 -1.71485,1.66475 -1.55047,2.99757 0.16438,1.33282 1.18312,2.46341 1.96393,2.79083 0.78082,0.32742 0,3.4e-4 0,3.4e-4 z" />
    <ellipse
       style="fill:#000000;fill-rule:evenodd;stroke-width:0.112335"
       id="path2937-4"
       cx="141.63031"
       cy="92.0933"
       rx="2.4139309"
       ry="3.2977993"
       transform="matrix(0.9652826,0.26120776,-0.25644906,0.96655775,0,0)" />
    <ellipse
       style="fill:#000000;fill-rule:evenodd;stroke-width:0.112335"
       id="path2937-4-4"
       cx="147.91476"
       cy="95.775162"
       rx="2.4139309"
       ry="3.2977993"
       transform="matrix(0.9652826,0.26120776,-0.25644906,0.96655775,0,0)" />
    <ellipse
       style="fill:#000000;fill-rule:evenodd;stroke-width:0.112843"
       id="path2937-4-9"
       cx="67.595177"
       cy="148.31448"
       rx="2.5028806"
       ry="3.2093971"
       transform="matrix(0.96979772,-0.24391062,0.27450095,0.96158683,0,0)" />
    <ellipse
       style="fill:#000000;fill-rule:evenodd;stroke-width:0.113753"
       id="path2937-4-9-2"
       cx="61.67239"
       cy="152.45074"
       rx="2.5053458"
       ry="3.2581789"
       transform="matrix(0.9688435,-0.24767373,0.27039109,0.96275057,0,0)" />
    <g
       aria-label="PAWS"
       id="text3421"
       style="font-weight:bold;font-size:12.7px;line-height:1.25;font-family:Tahoma;-inkscape-font-specification:'Tahoma, Bold';letter-spacing:0px;word-spacing:0px;stroke-width:0.0793749">
      <path
         d="m 96.31767,117.91954 q 0.280583,0.58069 0.349931,1.19457 0.06935,0.61389 -0.106863,1.13292 -0.106955,0.32028 -0.274766,0.62864 -0.162228,0.30566 -0.40727,0.58247 -0.245042,0.2768 -0.572898,0.52475 -0.322273,0.24526 -0.768956,0.46109 l -1.094371,0.52879 1.313884,2.71918 -2.08824,1.00902 -4.017194,-8.31388 3.227279,-1.55939 q 0.720276,-0.34803 1.304294,-0.46493 0.586903,-0.12518 1.148845,-0.0455 0.6201,0.0861 1.130546,0.4868 0.507748,0.39517 0.855779,1.11544 z m -2.119793,1.08625 q -0.169969,-0.35176 -0.458881,-0.52208 -0.29161,-0.1759 -0.571983,-0.15751 -0.357979,0.0146 -0.639665,0.13001 -0.278801,0.10717 -0.742234,0.3311 l -0.295927,0.14299 1.20327,2.49025 0.145171,-0.0702 q 0.295927,-0.14299 0.555655,-0.27537 0.259728,-0.13239 0.438964,-0.26031 0.154017,-0.10886 0.300502,-0.27606 0.149371,-0.17548 0.201312,-0.32455 0.112352,-0.30911 0.07702,-0.56752 -0.02975,-0.26112 -0.213205,-0.6408 z"
         id="path17282" />
      <path
         d="m 99.281301,123.38071 0.730509,-9.71875 2.45096,-0.62779 5.31277,8.17081 -2.31279,0.5924 -1.02644,-1.6831 -2.81139,0.72011 -0.0909,1.9693 z m 4.246969,-4.76221 -1.66861,-2.71567 -0.15759,3.18344 z"
         id="path17284" />
      <path
         d="m 122.05195,113.74454 -3.81278,8.72848 -2.50843,-0.41475 -0.53055,-5.87654 -2.35107,5.40008 -2.50843,-0.41475 -0.80026,-9.49123 2.37382,0.3925 0.24363,6.31936 2.54011,-5.85909 2.26982,0.3753 0.43941,6.35174 2.33209,-5.89349 z"
         id="path17286" />
      <path
         d="m 124.02077,125.18621 q -0.96699,-0.43518 -1.61814,-0.95263 -0.64551,-0.51491 -1.1485,-1.07449 l 0.9009,-2.00183 0.19227,0.0865 q 0.39158,0.82224 1.0252,1.45421 0.63362,0.63196 1.3518,0.95516 0.18095,0.0814 0.49282,0.17419 0.31753,0.0953 0.53666,0.0919 0.2638,0.003 0.49283,-0.0978 0.23158,-0.10659 0.35882,-0.38934 0.14252,-0.31667 -0.0172,-0.62657 -0.15974,-0.3099 -0.46397,-0.55562 -0.37887,-0.30651 -0.82504,-0.6297 -0.44052,-0.32066 -0.79847,-0.65855 -0.82305,-0.78522 -0.98505,-1.55855 -0.16199,-0.77332 0.23247,-1.64983 0.53189,-1.18187 1.8611,-1.46091 1.33176,-0.28468 2.83031,0.38972 0.7521,0.33847 1.42418,0.82454 0.67774,0.48861 1.14878,1.01341 l -0.86527,1.92266 -0.18661,-0.084 q -0.28867,-0.61272 -0.84256,-1.1952 -0.54823,-0.57994 -1.26075,-0.9006 -0.27709,-0.1247 -0.51545,-0.18437 -0.23835,-0.0597 -0.53241,-0.056 -0.23864,0.001 -0.4671,0.1162 -0.22027,0.11168 -0.31952,0.33222 -0.14506,0.32233 -0.005,0.61639 0.14787,0.29095 0.73512,0.73885 0.38086,0.287 0.73033,0.55308 0.35512,0.26862 0.7306,0.628 0.734,0.71114 0.91635,1.43923 0.19055,0.72497 -0.20391,1.60148 -0.56498,1.25539 -1.89815,1.57344 -1.32751,0.3206 -3.00702,-0.43524 z"
         id="path17288" />
    </g>
    <path
       style="display:none;fill:none;stroke:#000000;stroke-width:0.264583px;stroke-linecap:butt;stroke-linejoin:miter;stroke-opacity:1"
       d="m 91.890681,127.26701 c 0,0 9.536389,-5.89206 18.024809,-5.89206 8.48843,0 18.64664,5.89206 18.64664,5.89206"
       id="path13383"
       sodipodi:nodetypes="czc" />
  </g>
</svg>
