<?xml version="1.0" encoding="UTF-8"?>
<!-- Created with Inkscape (http://www.inkscape.org/) -->
<svg width="165.62" height="122.59" version="1.1" viewBox="0 0 43.82 32.436" xmlns="http://www.w3.org/2000/svg" xmlns:xlink="http://www.w3.org/1999/xlink">
 <g transform="translate(-87.942 -110.08)">
  <path d="m102.54 142.3c1.5616 0.65484 5.6182-0.79691 7.2738-0.70587 1.6557 0.091 4.0389 0.41364 5.6467 0.70587s2.7942-0.83411 3.3077-1.9639 0.54855-1.8138-1.0336-3.5144-3.6858-4.3438-5.4096-6.5093c-1.7238-2.1655-3.4041-1.7061-4.8234-3e-3 -1.4194 1.7034-3.5832 4.6258-5.3749 6.2018s-1.7148 1.6648-1.5505 2.9976 1.1831 2.4634 1.9639 2.7908c0.78082 0.32742 0 3.4e-4 0 3.4e-4z"/>
  <g>
   <path d="m102.54 142.3c1.5616 0.65484 5.6182-0.79691 7.2738-0.70587 1.6557 0.091 4.0389 0.41364 5.6467 0.70587s2.7942-0.83411 3.3077-1.9639 0.54855-1.8138-1.0336-3.5144-3.6858-4.3438-5.4096-6.5093c-1.7238-2.1655-3.4041-1.7061-4.8234-3e-3 -1.4194 1.7034-3.5832 4.6258-5.3749 6.2018s-1.7148 1.6648-1.5505 2.9976 1.1831 2.4634 1.9639 2.7908c0.78082 0.32742 0 3.4e-4 0 3.4e-4zm14.613 0c-1.5616 0.65484-5.6182-0.79691-7.2738-0.70587-1.6557 0.091-4.0389 0.41364-5.6467 0.70587s-2.7942-0.83411-3.3077-1.9639-0.54855-1.8138 1.0336-3.5144 3.6858-4.3438 5.4096-6.5093c1.7238-2.1655 3.4041-1.7061 4.8234-3e-3 1.4194 1.7034 3.5832 4.6258 5.3749 6.2018s1.7148 1.6648 1.5505 2.9976-1.1831 2.4634-1.9639 2.7908c-0.78082 0.32742 0 3.4e-4 0 3.4e-4z" stroke="#000" stroke-width=".079375px"/>
   <g fill-rule="evenodd">
    <ellipse transform="matrix(.96528 .26121 -.25645 .96656 0 0)" cx="141.63" cy="92.093" rx="2.4139" ry="3.2978" stroke-width=".11234"/>
    <ellipse transform="matrix(.96528 .26121 -.25645 .96656 0 0)" cx="147.91" cy="95.775" rx="2.4139" ry="3.2978" stroke-width=".11234"/>
    <ellipse transform="matrix(.9698 -.24391 .2745 .96159 0 0)" cx="67.595" cy="148.31" rx="2.5029" ry="3.2094" stroke-width=".11284"/>
    <ellipse transform="matrix(.96884 -.24767 .27039 .96275 0 0)" cx="61.672" cy="152.45" rx="2.5053" ry="3.2582" stroke-width=".11375"/>
   </g>
  </g>
  <text font-family="Tahoma" font-size="12.7px" font-weight="bold" letter-spacing="0px" stroke-width=".079375" style="font-variant-caps:normal;font-variant-east-asian:normal;font-variant-ligatures:normal;font-variant-numeric:normal;line-height:1.25" xml:space="preserve"><textPath xlink:href="#path13383">PAWS</textPath></text>
  <path id="path13383" d="m91.891 127.27s9.5364-5.8921 18.025-5.8921c8.4884 0 18.647 5.8921 18.647 5.8921" display="none" fill="none" stroke="#000" stroke-width=".26458px"/>
 </g>
</svg>
