<?xml version="1.0" encoding="UTF-8" standalone="no"?>
<!-- Created with Inkscape (http://www.inkscape.org/) -->

<svg
   width="210mm"
   height="297mm"
   viewBox="0 0 210 297"
   version="1.1"
   id="svg5"
   inkscape:version="1.1 (c68e22c387, 2021-05-23)"
   sodipodi:docname="PAWS-logo-v1_1.svg"
   xmlns:inkscape="http://www.inkscape.org/namespaces/inkscape"
   xmlns:sodipodi="http://sodipodi.sourceforge.net/DTD/sodipodi-0.dtd"
   xmlns:xlink="http://www.w3.org/1999/xlink"
   xmlns="http://www.w3.org/2000/svg"
   xmlns:svg="http://www.w3.org/2000/svg">
  <sodipodi:namedview
     id="namedview7"
     pagecolor="#ffffff"
     bordercolor="#666666"
     borderopacity="1.0"
     inkscape:pageshadow="2"
     inkscape:pageopacity="0.0"
     inkscape:pagecheckerboard="0"
     inkscape:document-units="mm"
     showgrid="false"
     inkscape:zoom="0.5429981"
     inkscape:cx="337.93857"
     inkscape:cy="562.61707"
     inkscape:window-width="958"
     inkscape:window-height="1033"
     inkscape:window-x="0"
     inkscape:window-y="0"
     inkscape:window-maximized="0"
     inkscape:current-layer="layer1" />
  <defs
     id="defs2" />
  <g
     inkscape:label="Layer 1"
     inkscape:groupmode="layer"
     id="layer1">
    <path
       style="fill:#000000;fill-opacity:1;stroke:#000000;stroke-width:0.264583px;stroke-linecap:butt;stroke-linejoin:miter;stroke-opacity:1"
       d="m 80.204083,179.64185 c 5.2054,2.1828 19.38077,-2.4596 23.429237,-3.79002 4.04846,-1.33042 12.95142,2.57446 19.63921,3.79002 4.03067,0.73261 8.71793,-1.46889 11.02552,-6.5464 1.11552,-2.45454 0.2824,-8.40075 -3.44548,-11.71462 -9.76107,-8.67703 -10.99019,-10.01973 -20.15603,-21.53422 -2.32627,-2.92235 -10.53879,-4.2712 -13.954177,-0.17228 -6.04719,7.25743 -7.92479,11.88403 -17.91647,20.67286 -1.95292,1.71782 -5.57772,6.67142 -5.16822,9.99188 0.68631,5.56501 1.341,7.11998 6.54641,9.30278 z"
       id="path42"
       sodipodi:nodetypes="zzsssssssz" />
    <ellipse
       style="fill:#000000;fill-rule:evenodd;stroke-width:0.37445"
       id="path2937-4"
       cx="143.66212"
       cy="90.854485"
       rx="8.0464363"
       ry="10.992664"
       transform="matrix(0.9652826,0.26120776,-0.25644906,0.96655775,0,0)" />
    <ellipse
       style="fill:#000000;fill-rule:evenodd;stroke-width:0.37445"
       id="path2937-4-4"
       cx="164.61034"
       cy="103.12736"
       rx="8.0464363"
       ry="10.992664"
       transform="matrix(0.9652826,0.26120776,-0.25644906,0.96655775,0,0)" />
    <ellipse
       style="fill:#000000;fill-rule:evenodd;stroke-width:0.376141"
       id="path2937-4-9"
       cx="54.560833"
       cy="144.61012"
       rx="8.3429356"
       ry="10.69799"
       transform="matrix(0.96979772,-0.24391062,0.27450095,0.96158683,0,0)" />
    <ellipse
       style="fill:#000000;fill-rule:evenodd;stroke-width:0.379176"
       id="path2937-4-9-2"
       cx="33.340614"
       cy="157.77286"
       rx="8.3511524"
       ry="10.860597"
       transform="matrix(0.9688435,-0.24767373,0.27039109,0.96275057,0,0)" />
    <text
       xml:space="preserve"
       style="font-style:normal;font-variant:normal;font-weight:bold;font-stretch:normal;font-size:42.3333px;line-height:1.25;font-family:Tahoma;-inkscape-font-specification:'Tahoma, Bold';font-variant-ligatures:normal;font-variant-caps:normal;font-variant-numeric:normal;font-variant-east-asian:normal;letter-spacing:0px;stroke-width:0.264583"
       id="text3421"
       transform="translate(225.60315,2.1010963)"><textPath
         xlink:href="#path31348"
         id="textPath32234">PAWS</textPath></text>
    <path
       style="display:none;fill:none;stroke:#000000;stroke-width:0.264583px;stroke-linecap:butt;stroke-linejoin:miter;stroke-opacity:1"
       d="m -174.68562,124.28287 c -1.63867,-1.36556 31.1573,-21.88347 52.37124,-22.39556 21.21395,-0.51209 57.415647,19.80269 55.472154,21.01737"
       id="path31348"
       sodipodi:nodetypes="csc" />
  </g>
</svg>
