<?xml version="1.0" encoding="UTF-8" standalone="no"?>
<!-- Created with Inkscape (http://www.inkscape.org/) -->

<svg
   width="165.61827"
   height="122.59332"
   viewBox="0 0 43.819834 32.436147"
   version="1.1"
   id="svg5"
   inkscape:version="1.1 (c68e22c387, 2021-05-23)"
   sodipodi:docname="PAWS-logo-v1_7_1.svg"
   inkscape:export-filename="C:\Users\Jeff\Documents\Web Development\PAWS-LI\PAWS-new-website\PAWS-logo-v1_7_1.png"
   inkscape:export-xdpi="96.318459"
   inkscape:export-ydpi="96.318459"
   xmlns:inkscape="http://www.inkscape.org/namespaces/inkscape"
   xmlns:sodipodi="http://sodipodi.sourceforge.net/DTD/sodipodi-0.dtd"
   xmlns:xlink="http://www.w3.org/1999/xlink"
   xmlns="http://www.w3.org/2000/svg"
   xmlns:svg="http://www.w3.org/2000/svg">
  <sodipodi:namedview
     id="namedview7"
     pagecolor="#ffffff"
     bordercolor="#666666"
     borderopacity="1.0"
     inkscape:pageshadow="2"
     inkscape:pageopacity="0.0"
     inkscape:pagecheckerboard="0"
     inkscape:document-units="px"
     showgrid="false"
     inkscape:zoom="2.6989778"
     inkscape:cx="33.901724"
     inkscape:cy="75.769426"
     inkscape:window-width="1083"
     inkscape:window-height="1033"
     inkscape:window-x="0"
     inkscape:window-y="0"
     inkscape:window-maximized="0"
     inkscape:current-layer="layer1"
     units="px"
     fit-margin-top="0"
     fit-margin-left="0"
     fit-margin-right="0"
     fit-margin-bottom="0"
     width="168px"
     showguides="true"
     inkscape:guide-bbox="true"
     inkscape:snap-object-midpoints="true"
     inkscape:object-nodes="true" />
  <defs
     id="defs2">
    <inkscape:path-effect
       effect="mirror_symmetry"
       start_point="119.08877,128.8536"
       end_point="119.08877,142.4687"
       center_point="119.08877,135.66115"
       id="path-effect2005"
       is_visible="true"
       lpeversion="1.1"
       mode="vertical"
       discard_orig_path="false"
       fuse_paths="false"
       oposite_fuse="false"
       split_items="false"
       split_open="false" />
    <inkscape:path-effect
       effect="mirror_symmetry"
       start_point="118.9106,129.53505"
       end_point="118.9106,142.47091"
       center_point="118.9106,136.00298"
       id="path-effect107"
       is_visible="true"
       lpeversion="1.1"
       mode="vertical"
       discard_orig_path="false"
       fuse_paths="false"
       oposite_fuse="false"
       split_items="false"
       split_open="false" />
    <inkscape:path-effect
       effect="fill_between_many"
       method="originald"
       linkedpaths="#path42,0,1|"
       id="path-effect109"
       join="true"
       close="true"
       autoreverse="true" />
  </defs>
  <g
     inkscape:label="Layer 1"
     inkscape:groupmode="layer"
     id="layer1"
     transform="translate(-87.941575,-110.07606)"
     style="display:inline">
    <path
       inkscape:original-d="M 0,0"
       inkscape:path-effect="#path-effect109"
       d="m 102.54478,142.29845 c 1.56162,0.65484 5.61818,-0.79691 7.27385,-0.70587 1.65567,0.091 4.03891,0.41364 5.64668,0.70587 1.60777,0.29223 2.79419,-0.83411 3.30766,-1.96392 0.51347,-1.12981 0.54855,-1.81378 -1.03365,-3.51439 -1.5822,-1.70061 -3.68579,-4.34375 -5.40961,-6.50928 -1.72381,-2.16553 -3.40406,-1.70613 -4.82345,-0.003 -1.41939,1.70345 -3.58325,4.62585 -5.37494,6.20185 -1.79169,1.576 -1.71485,1.66475 -1.55047,2.99757 0.16438,1.33282 1.18312,2.46341 1.96393,2.79083 0.78082,0.32742 0,3.4e-4 0,3.4e-4 z"
       id="path111"
       style="display:inline"
       inkscape:export-filename="C:\Users\Jeff\Documents\Web Development\PAWS-LI\PAWS-new-website\text3421.png"
       inkscape:export-xdpi="299.84946"
       inkscape:export-ydpi="299.84946" />
    <path
       style="fill:#000000;fill-opacity:1;stroke:#000000;stroke-width:0.0793746px;stroke-linecap:butt;stroke-linejoin:miter;stroke-opacity:1"
       d="m 102.54478,142.29845 c 1.56162,0.65484 5.61818,-0.79691 7.27385,-0.70587 1.65567,0.091 4.03891,0.41364 5.64668,0.70587 1.60777,0.29223 2.79419,-0.83411 3.30766,-1.96392 0.51347,-1.12981 0.54855,-1.81378 -1.03365,-3.51439 -1.5822,-1.70061 -3.68579,-4.34375 -5.40961,-6.50928 -1.72381,-2.16553 -3.40406,-1.70613 -4.82345,-0.003 -1.41939,1.70345 -3.58325,4.62585 -5.37494,6.20185 -1.79169,1.576 -1.71485,1.66475 -1.55047,2.99757 0.16438,1.33282 1.18312,2.46341 1.96393,2.79083 0.78082,0.32742 0,3.4e-4 0,3.4e-4 z m 14.61342,0 c -1.56162,0.65484 -5.61818,-0.79691 -7.27385,-0.70587 -1.65567,0.091 -4.03891,0.41364 -5.64668,0.70587 -1.60777,0.29223 -2.79419,-0.83411 -3.30766,-1.96392 -0.51347,-1.12981 -0.54855,-1.81378 1.03365,-3.51439 1.5822,-1.70061 3.68579,-4.34375 5.40961,-6.50928 1.72381,-2.16553 3.40406,-1.70613 4.82345,-0.003 1.41939,1.70345 3.58325,4.62585 5.37494,6.20185 1.79169,1.576 1.71485,1.66475 1.55047,2.99757 -0.16438,1.33282 -1.18312,2.46341 -1.96393,2.79083 -0.78082,0.32742 0,3.4e-4 0,3.4e-4 z"
       id="path42"
       sodipodi:nodetypes="zzzzzzzzzzz"
       inkscape:path-effect="#path-effect2005"
       inkscape:original-d="m 102.54478,142.29845 c 1.56162,0.65484 5.61818,-0.79691 7.27385,-0.70587 1.65567,0.091 4.03891,0.41364 5.64668,0.70587 1.60777,0.29223 2.79419,-0.83411 3.30766,-1.96392 0.51347,-1.12981 0.54855,-1.81378 -1.03365,-3.51439 -1.5822,-1.70061 -3.68579,-4.34375 -5.40961,-6.50928 -1.72381,-2.16553 -3.40406,-1.70613 -4.82345,-0.003 -1.41939,1.70345 -3.58325,4.62585 -5.37494,6.20185 -1.79169,1.576 -1.71485,1.66475 -1.55047,2.99757 0.16438,1.33282 1.18312,2.46341 1.96393,2.79083 0.78082,0.32742 0,3.4e-4 0,3.4e-4 z"
       inkscape:export-filename="C:\Users\Jeff\Documents\Web Development\PAWS-LI\PAWS-new-website\text3421.png"
       inkscape:export-xdpi="299.84946"
       inkscape:export-ydpi="299.84946" />
    <ellipse
       style="fill:#000000;fill-rule:evenodd;stroke-width:0.112335"
       id="path2937-4"
       cx="141.63031"
       cy="92.0933"
       rx="2.4139309"
       ry="3.2977993"
       transform="matrix(0.9652826,0.26120776,-0.25644906,0.96655775,0,0)"
       inkscape:export-filename="C:\Users\Jeff\Documents\Web Development\PAWS-LI\PAWS-new-website\text3421.png"
       inkscape:export-xdpi="299.84946"
       inkscape:export-ydpi="299.84946" />
    <ellipse
       style="fill:#000000;fill-rule:evenodd;stroke-width:0.112335"
       id="path2937-4-4"
       cx="147.91476"
       cy="95.775162"
       rx="2.4139309"
       ry="3.2977993"
       transform="matrix(0.9652826,0.26120776,-0.25644906,0.96655775,0,0)"
       inkscape:export-filename="C:\Users\Jeff\Documents\Web Development\PAWS-LI\PAWS-new-website\text3421.png"
       inkscape:export-xdpi="299.84946"
       inkscape:export-ydpi="299.84946" />
    <ellipse
       style="fill:#000000;fill-rule:evenodd;stroke-width:0.112843"
       id="path2937-4-9"
       cx="67.595177"
       cy="148.31448"
       rx="2.5028806"
       ry="3.2093971"
       transform="matrix(0.96979772,-0.24391062,0.27450095,0.96158683,0,0)"
       inkscape:export-filename="C:\Users\Jeff\Documents\Web Development\PAWS-LI\PAWS-new-website\text3421.png"
       inkscape:export-xdpi="299.84946"
       inkscape:export-ydpi="299.84946" />
    <ellipse
       style="fill:#000000;fill-rule:evenodd;stroke-width:0.113753"
       id="path2937-4-9-2"
       cx="61.67239"
       cy="152.45074"
       rx="2.5053458"
       ry="3.2581789"
       transform="matrix(0.9688435,-0.24767373,0.27039109,0.96275057,0,0)"
       inkscape:export-filename="C:\Users\Jeff\Documents\Web Development\PAWS-LI\PAWS-new-website\text3421.png"
       inkscape:export-xdpi="299.84946"
       inkscape:export-ydpi="299.84946" />
    <text
       xml:space="preserve"
       style="font-style:normal;font-variant:normal;font-weight:bold;font-stretch:normal;font-size:12.7px;line-height:1.25;font-family:Tahoma;-inkscape-font-specification:'Tahoma, Bold';font-variant-ligatures:normal;font-variant-caps:normal;font-variant-numeric:normal;font-variant-east-asian:normal;letter-spacing:0px;word-spacing:0px;stroke-width:0.0793749"
       id="text3421"
       inkscape:export-filename="C:\Users\Jeff\Documents\Web Development\PAWS-LI\PAWS-new-website\text3421.png"
       inkscape:export-xdpi="299.84946"
       inkscape:export-ydpi="299.84946"><textPath
         xlink:href="#path13383"
         id="textPath14646">PAWS</textPath></text>
    <path
       style="display:none;fill:none;stroke:#000000;stroke-width:0.264583px;stroke-linecap:butt;stroke-linejoin:miter;stroke-opacity:1"
       d="m 91.890681,127.26701 c 0,0 9.536389,-5.89206 18.024809,-5.89206 8.48843,0 18.64664,5.89206 18.64664,5.89206"
       id="path13383"
       sodipodi:nodetypes="czc" />
  </g>
</svg>
